<svg width="16" height="16" viewBox="0 0 16 16" fill="none" xmlns="http://www.w3.org/2000/svg">
<g clip-path="url(#clip0_22_55)">
<path d="M6.97502 13.25C5.73394 13.25 4.52073 12.882 3.48881 12.1925C2.45689 11.503 1.65261 10.523 1.17767 9.37635C0.702731 8.22975 0.578465 6.96805 0.820587 5.75082C1.06271 4.53359 1.66035 3.41549 2.53792 2.53792C3.41549 1.66035 4.53359 1.06271 5.75082 0.820587C6.96805 0.578465 8.22975 0.702731 9.37635 1.17767C10.523 1.65261 11.503 2.45689 12.1925 3.48881C12.882 4.52073 13.25 5.73394 13.25 6.97502C13.25 7.79906 13.0877 8.61504 12.7724 9.37635C12.457 10.1377 11.9948 10.8294 11.4121 11.4121C10.8294 11.9948 10.1377 12.457 9.37635 12.7724C8.61504 13.0877 7.79906 13.25 6.97502 13.25ZM6.97502 1.95835C5.98611 1.95835 5.01941 2.25159 4.19716 2.801C3.37492 3.35041 2.73406 4.1313 2.35562 5.04493C1.97718 5.95856 1.87816 6.96389 2.07109 7.9338C2.26401 8.9037 2.74022 9.79462 3.43948 10.4939C4.13874 11.1931 5.02966 11.6693 5.99956 11.8623C6.96947 12.0552 7.9748 11.9562 8.88843 11.5777C9.80206 11.1993 10.583 10.5584 11.1324 9.7362C11.6818 8.91395 11.975 7.94725 11.975 6.95835C11.975 5.63227 11.4482 4.3605 10.5105 3.42281C9.57287 2.48513 8.3011 1.95835 6.97502 1.95835Z" fill="#03C75A"/>
<path d="M14.6667 15.2917C14.5846 15.2921 14.5032 15.276 14.4273 15.2446C14.3515 15.2131 14.2827 15.1668 14.225 15.1083L10.7833 11.6667C10.6729 11.5482 10.6128 11.3915 10.6157 11.2296C10.6186 11.0677 10.6841 10.9132 10.7987 10.7987C10.9132 10.6841 11.0677 10.6186 11.2296 10.6157C11.3915 10.6128 11.5482 10.6729 11.6667 10.7833L15.1083 14.225C15.2254 14.3422 15.2911 14.5011 15.2911 14.6667C15.2911 14.8323 15.2254 14.9912 15.1083 15.1083C15.0506 15.1668 14.9818 15.2131 14.906 15.2446C14.8302 15.276 14.7488 15.2921 14.6667 15.2917Z" fill="#03C75A"/>
</g>
<defs>
<clipPath id="clip0_22_55">
<rect width="16" height="16" fill="white"/>
</clipPath>
</defs>
</svg>
